<?xml version="1.0" encoding="utf-8"?>
<!-- Generator: Adobe Illustrator 25.0.0, SVG Export Plug-In . SVG Version: 6.00 Build 0)  -->
<svg version="1.1" id="Capa_1" xmlns="http://www.w3.org/2000/svg" xmlns:xlink="http://www.w3.org/1999/xlink" x="0px" y="0px"
	 viewBox="0 0 512 512" style="enable-background:new 0 0 512 512;" xml:space="preserve">
<style type="text/css">
	.st0{fill:#FFFFFF;}
</style>
<g>
	<path class="st0" d="M448.8,297.4h-48c-4.1,0-7.5,3.4-7.5,7.5s3.4,7.5,7.5,7.5h48c4.1,0,7.5-3.4,7.5-7.5S452.9,297.4,448.8,297.4z"
		/>
	<path class="st0" d="M448.8,328.2h-48c-4.1,0-7.5,3.4-7.5,7.5s3.4,7.5,7.5,7.5h48c4.1,0,7.5-3.4,7.5-7.5S452.9,328.2,448.8,328.2z"
		/>
	<path class="st0" d="M448.8,266.5h-48c-4.1,0-7.5,3.4-7.5,7.5s3.4,7.5,7.5,7.5h48c4.1,0,7.5-3.4,7.5-7.5S452.9,266.5,448.8,266.5z"
		/>
	<path class="st0" d="M339.1,256.8c-6.7,0-12.1,5.4-12.1,12.1v7.1h-17.6c-6.7,0-12.1,5.4-12.1,12.1v6.4h-17.6
		c-6.7,0-12.1,5.4-12.1,12.1v35.1c0,6.1,5,11.1,11.1,11.1h82c6.1,0,11.1-5,11.1-11.1v-72.9c0-6.7-5.4-12.1-12.1-12.1H339.1z
		 M297.2,337.9h-14.8v-28.4h14.8V337.9z M326.9,337.9h-14.7c0-9.1,0-37.6,0-46.9h14.7V337.9z M356.7,337.9H342c0-48.5,0-63.9,0-66.2
		h14.8L356.7,337.9L356.7,337.9z"/>
	<path class="st0" d="M18.4,476.6h126.7c4.1,0,7.5-3.4,7.5-7.5s-3.4-7.5-7.5-7.5H68.1V360.8c0-4.1-3.4-7.5-7.5-7.5s-7.5,3.4-7.5,7.5
		v100.8H18.4c-1.9,0-3.4-1.5-3.4-3.4V352c0-23.7,16.8-39.3,28.1-44l48.8-19l29,29c10.6,10.6,25.5,17.3,41.7,17.3
		c15.7,0,30.6-6.2,41.7-17.3l28.6-28.6v99.3c0,10.6,8.6,19.2,19.2,19.2h5v53.7h-77.1c-4.1,0-7.5,3.4-7.5,7.5s3.4,7.5,7.5,7.5h126.7
		c10.2,0,18.4-8.3,18.4-18.4v-50.3h31.1v23c-9.3,3.1-16,11.9-16,22.2c0,12.9,10.5,23.5,23.5,23.5s23.5-10.5,23.5-23.5
		c0-10.3-6.7-19.1-16-22.2v-23h104.2c10.6,0,19.2-8.6,19.2-19.2v-66.3c0-4.1-3.4-7.5-7.5-7.5s-7.5,3.4-7.5,7.5v66.3
		c0,2.3-1.9,4.2-4.2,4.2H317.8h-65.6c-2.3,0-4.2-1.9-4.2-4.2c0-4.7,0-170.6,0-175.3h231.9v74.1c0,4.1,3.4,7.5,7.5,7.5
		s7.5-3.4,7.5-7.5v-74.1h0c9.4,0,17.1-7.7,17.1-17.1v-14.5c0-9.4-7.7-17.1-17.1-17.1H258.5c-1.5-8.2-6.2-15.5-12.7-20.2
		c0.7-2,1.1-4.1,1.1-6.4V89.6c0-15.9-13.7-27.5-27.9-26.4c-1.8,0.1-3.8-0.8-4.1-2.8c-3.3-16.8-13.8-25-32.3-25h-63.7
		c-27.5,0-49.8,22.3-49.8,49.8v46.4c0,6.5,2.5,12.4,6.5,16.9c-5.8,5.9-9.4,13.9-9.4,22.1c0,15.3,11.9,28.9,28.8,30.8
		c2.4,17.2,11.6,33.9,26.5,45v14.9c-8.4,3.3-75,29.3-83.9,32.8c0,0-0.1,0-0.1,0.1C19.4,301.5,0,322.8,0,352v106.2
		C0,468.3,8.3,476.6,18.4,476.6L18.4,476.6z M364,444.6c4.7,0,8.5,3.8,8.5,8.5s-3.8,8.5-8.5,8.5s-8.5-3.8-8.5-8.5
		S359.3,444.6,364,444.6z M272.2,407.9h38.1v50.3c0,1.9-1.5,3.4-3.4,3.4h-34.7L272.2,407.9L272.2,407.9z M143.1,315.7
		c8.9-9,5.7-5.7,14.7-14.8c0,0,0,0,0,0c0.7-0.7,1.3-1.5,1.7-2.1h6.3c0.4,0.7,1,1.5,1.7,2.2l14.7,14.8
		C169.9,321.8,155.4,321.8,143.1,315.7L143.1,315.7z M136.5,263c0-0.2,0-0.4,0-0.6v-7.7c15.5,6.2,34.8,7.2,52.2,0.1l0,7.6
		c0,0.1,0,0.3,0,0.4c-8.7,8.6-12.5,12.4-20.9,20.8h-10.5C152.1,278.5,140.8,267.3,136.5,263z M194.4,306.7
		c-1.4-1.4-12.5-12.6-14.1-14.2l17.4-17.3c10.6,4.1,10,3.9,20.3,7.9L194.4,306.7z M233,272.9l-29.3-11.3l0-15.1
		c11.3-8.4,19.9-20.3,24.1-34c1.6,0.5,3.3,0.8,5.1,0.8h0V272.9z M494.9,179.6c1.1,0,2.1,0.9,2.1,2.1v14.5c0,1.1-0.9,2.1-2.1,2.1
		c-12.6,0-249.1,0-261.9,0c-1.1,0-2.1-0.9-2.1-2.1c0-8.2,0-6.5,0-14.5c0-1.1,0.9-2.1,2.1-2.1C248.5,179.6,479.7,179.6,494.9,179.6
		L494.9,179.6z M235.3,155.5c3.5,2,6.3,5.3,7.7,9.2h-10c-0.7,0-1.6,0.1-2.1,0.1v-8C232.4,156.5,234.1,156,235.3,155.5L235.3,155.5z
		 M94.4,186.1c-7.5-1.8-13.1-8-13.1-15.5c0-5.5,3.3-11,8.3-14.1c1.2,0.2,2.4,0.4,3.6,0.4c0.4,0,0.8,0,1.2,0L94.4,186.1L94.4,186.1z
		 M94.4,142c-5.6,0-10.3-4.5-10.3-10.3V85.2c0-19.2,15.6-34.8,34.8-34.8h63.7c13.9,0,16.2,5.8,17.5,12.8c1.8,9.2,10.4,15.6,20,14.8
		c5.6-0.4,11.8,4.4,11.8,11.5V138c0,2.2-1.9,3.9-3.9,3.9c-8,0-14.3-6.6-14.3-14.3c0-9-12-11.9-16.2-4.1
		c-6.1,11.4-17.8,18.4-30.7,18.4C156.2,142,104.9,142,94.4,142L94.4,142z M109.4,192.4V157h57.3c13.4,0,26.3-5.4,35.7-15
		c3.1,5.5,7.8,9.9,13.6,12.5v38c0,29.2-23.9,52.4-52.4,52.4C130.9,244.8,109.4,219.4,109.4,192.4z M127.4,275.1
		c11.4,11.3,7.1,7,17.6,17.4c-7.6,7.7-4.9,4.9-14.1,14.2L107.2,283L127.4,275.1z"/>
</g>
</svg>
