<?xml version="1.0" encoding="utf-8"?>
<!-- Generator: Adobe Illustrator 25.0.0, SVG Export Plug-In . SVG Version: 6.00 Build 0)  -->
<svg version="1.1" id="Layer_3" xmlns="http://www.w3.org/2000/svg" xmlns:xlink="http://www.w3.org/1999/xlink" x="0px" y="0px"
	 viewBox="0 0 512 512" style="enable-background:new 0 0 512 512;" xml:space="preserve">
<style type="text/css">
	.st0{fill:#F4B2B0;}
	.st1{fill:#FFFFFF;}
</style>
<g>
	<path class="st0" d="M160,344h32l-56-56l-56,56h32c0,83.9,68.1,152,152,152h48C228.1,496,160,428,160,344z M120,344
		c0-4.4-3.6-8-8-8H99.3l36.7-36.7l36.7,36.7H160c-4.4,0-8,3.6-8,8c0,61.3,34.7,114.7,85.5,141.5C170.7,473.1,120,414.3,120,344z"/>
	<path class="st0" d="M400,168c0-83.9-68.1-152-152-152h-48c83.9,0,152,68.1,152,152h-32l56,56l56-56H400z M339.3,176H352
		c4.4,0,8-3.6,8-8c0-61.3-34.7-114.7-85.5-141.5C341.3,38.9,392,97.7,392,168c0,4.4,3.6,8,8,8h12.7L376,212.7L339.3,176z"/>
	<g>
		<path class="st1" d="M503.9,370c-3-65.3-56.5-118.8-121.8-121.8c-35.3-1.7-68.9,10.9-94.4,35.3C262.1,307.8,248,340.7,248,376v80
			h16v-80c0-30.9,12.3-59.7,34.7-81c22.3-21.3,51.6-32.3,82.6-30.9c57.1,2.6,103.9,49.5,106.6,106.6c1.4,31-9.5,60.3-30.9,82.6
			c-0.3,0.3-0.7,0.6-1,0.9v-33.3c0-20.4-16.6-36.9-36.9-36.9h-1.2c-6.4,0-12.1-2.9-16-7.6c13.3-8.5,22.1-23.4,22.1-40.4v-16
			c0-26.5-21.5-48-48-48s-48,21.5-48,48v16c0,16.9,8.8,31.8,22.1,40.4c-3.9,4.7-9.7,7.6-16,7.6h-1.2c-20.4,0-36.9,16.6-36.9,36.9
			V456c0,4.4,3.6,8,8,8h141.1c-19.6,15.5-43.6,24-69.1,24h-64c-76.7,0-139.6-60.3-143.8-136H192c3.2,0,6.2-2,7.4-4.9
			c1.2-3,0.5-6.4-1.7-8.7l-56-56c-3.1-3.1-8.2-3.1-11.3,0l-56,56c-2.3,2.3-3,5.7-1.7,8.7c1.2,3,4.2,4.9,7.4,4.9h24.2
			c4.2,84.5,74.3,152,159.8,152h112c35.3,0,68.2-14.1,92.6-39.6C493,438.9,505.5,405.3,503.9,370z M344,336v-16
			c0-17.7,14.3-32,32-32s32,14.3,32,32v16c0,17.7-14.3,32-32,32S344,353.7,344,336z M395.8,392.6c-5.5,4.7-12.5,7.4-19.8,7.4
			s-14.3-2.8-19.8-7.4c3.5-2.7,6.6-6,9-9.8c3.5,0.8,7,1.2,10.7,1.2s7.3-0.5,10.7-1.2C389.2,386.6,392.2,389.9,395.8,392.6z M440,448
			h-16v-16h-16v16h-64v-16h-16v16h-16v-27.1c0-11.5,9.4-20.9,20.9-20.9h1.2c2.1,0,4.1-0.2,6-0.5l2.9,2.9c8.7,8.7,20.7,13.7,33,13.7
			s24.3-5,33-13.7l2.9-2.9c2,0.3,4,0.5,6,0.5h1.2c11.5,0,20.9,9.4,20.9,20.9V448z M120,344c0-4.4-3.6-8-8-8H99.3l36.7-36.7
			l36.7,36.7H160c-4.4,0-8,3.6-8,8c0,61.3,34.7,114.7,85.5,141.5C170.7,473.1,120,414.3,120,344z"/>
		<path class="st1" d="M439.4,164.9c-1.2-3-4.2-4.9-7.4-4.9h-24.2C403.6,75.5,333.5,8,248,8H136c-35.3,0-68.2,14.1-92.6,39.6
			C19,73.1,6.5,106.7,8.1,142c3,65.3,56.5,118.8,121.8,121.8c2,0.1,4.1,0.1,6.1,0.1c33.1,0,64.3-12.5,88.3-35.4
			c25.5-24.4,39.6-57.3,39.6-92.6V56h-16v80c0,29.6-11.4,57.2-32,78.2V181c0-20.4-16.6-37-36.9-37h-1.2c-6.4,0-12.1-2.9-16-7.6
			c13.3-8.5,22.1-23.4,22.1-40.4V80c0-26.5-21.5-48-48-48S88,53.5,88,80v16c0,16.9,8.8,31.8,22.1,40.4c-3.9,4.7-9.7,7.6-16,7.6h-1.2
			C72.6,144,56,160.6,56,180.9v33c-18.6-19.1-30.6-44.6-31.9-72.7c-1.4-31,9.5-60.3,30.9-82.6C76.3,36.3,105.1,24,136,24h64
			c76.7,0,139.6,60.3,143.8,136H320c-3.2,0-6.2,2-7.4,4.9c-1.2,3-0.5,6.4,1.7,8.7l56,56c3.1,3.1,8.2,3.1,11.3,0l56-56
			C439.9,171.4,440.6,167.9,439.4,164.9z M104,96V80c0-17.7,14.3-32,32-32s32,14.3,32,32v16c0,17.7-14.3,32-32,32S104,113.7,104,96z
			 M155.8,152.6c-5.5,4.7-12.5,7.4-19.8,7.4s-14.3-2.8-19.8-7.4c3.5-2.7,6.6-6,9-9.8c3.5,0.8,7,1.2,10.7,1.2s7.3-0.5,10.7-1.2
			C149.2,146.6,152.2,149.9,155.8,152.6z M72,180.9c0-11.5,9.4-20.9,20.9-20.9h1.2c2.1,0,4.1-0.2,6-0.5l2.9,2.9
			c8.7,8.7,20.7,13.7,33,13.7s24.3-5,33-13.7l2.9-2.9c2,0.3,4,0.5,6,0.5h1.2c11.5,0,20.9,9.4,20.9,20.9V208h-16v-16h-16v16h-64v-16
			H88v16H72V180.9z M205.2,224c-21.1,16.7-47.2,25.1-74.5,23.9C106.9,246.8,85,238,67.2,224H205.2z M376,212.7L339.3,176H352
			c4.4,0,8-3.6,8-8c0-61.3-34.7-114.7-85.5-141.5C341.3,38.9,392,97.7,392,168c0,4.4,3.6,8,8,8h12.7L376,212.7z"/>
	</g>
</g>
</svg>
