<?xml version="1.0" encoding="utf-8"?>
<!-- Generator: Adobe Illustrator 25.0.0, SVG Export Plug-In . SVG Version: 6.00 Build 0)  -->
<svg version="1.1" id="Calque_1" xmlns="http://www.w3.org/2000/svg" xmlns:xlink="http://www.w3.org/1999/xlink" x="0px" y="0px"
	 viewBox="0 0 512 512" style="enable-background:new 0 0 512 512;" xml:space="preserve">
<style type="text/css">
	.st0{fill:#FFFFFF;}
</style>
<g id="Outline">
	<g>
		<path class="st0" d="M208,432c4.4,0,8-3.6,8-8v-8h8c4.4,0,8-3.6,8-8s-3.6-8-8-8h-8v-8c0-4.4-3.6-8-8-8s-8,3.6-8,8v8h-8
			c-4.4,0-8,3.6-8,8s3.6,8,8,8h8v8C200,428.4,203.6,432,208,432z"/>
		<circle class="st0" cx="311.9" cy="393.6" r="8"/>
		<circle class="st0" cx="284.1" cy="409.6" r="8"/>
		<path class="st0" d="M306,415.5c-3.8,2.2-5.1,7.1-2.9,10.9c2.2,3.8,7.1,5.1,10.9,2.9s5.1-7.1,2.9-10.9c0,0,0,0,0,0
			C314.7,414.6,309.8,413.3,306,415.5z"/>
		<path class="st0" d="M456,16H56c-4.4,0-8,3.6-8,8v60c0,4.4,3.6,8,8,8s8-3.6,8-8V32h384v170.6c0,4.4,3.6,8,8,8s8-3.6,8-8V24
			C464,19.6,460.4,16,456,16z"/>
		<path class="st0" d="M456,224c-4.4,0-8,3.6-8,8v24H228.5L208,221.8V144c0-4.4-3.6-8-8-8h-16c-13.3,0-24,10.7-24,24s10.7,24,24,24
			h8v37.8L171.5,256H64V112c0-4.4-3.6-8-8-8s-8,3.6-8,8v152c0,4.4,3.6,8,8,8h192v8c0,4.4-3.6,8-8,8h-40c-13.3,0-24,10.7-24,24
			s10.7,24,24,24h40c4.4,0,8,3.6,8,8v8h-44c-0.8,0-1.7,0.1-2.5,0.4c-28.2,3.4-49.4,27.2-49.5,55.6v56c0,17.7,14.3,32,32,32
			s32-14.3,32-32v-0.6c11.7-1.7,22.6-7.1,31.1-15.4h17.8c8.5,8.3,19.4,13.7,31.1,15.4v0.6c0,17.7,14.3,32,32,32s32-14.3,32-32v-24
			c0-4.4-3.6-8-8-8s-8,3.6-8,8v24c0,8.8-7.2,16-16,16s-16-7.2-16-16v-8c0-4.4-3.6-8-8-8c-11.4,0-22.2-4.9-29.8-13.3
			c-1.5-1.7-3.7-2.7-6-2.7h-24.6c-2.3,0-4.4,1-6,2.7c-7.6,8.5-18.4,13.3-29.8,13.3c-4.4,0-8,3.6-8,8v8c0,8.8-7.2,16-16,16
			s-16-7.2-16-16v-56c0.1-20.7,16-38,36.7-39.8c0.4,0,0.8-0.1,1.1-0.2h100.4c0.4,0.1,0.8,0.1,1.1,0.2C328,370,343.9,387.3,344,408
			c0,4.4,3.6,8,8,8s8-3.6,8-8c-0.1-28.3-21.3-52.1-49.4-55.6c-0.8-0.3-1.7-0.4-2.6-0.4h-44v-8c0-13.3-10.7-24-24-24h-40
			c-4.4,0-8-3.6-8-8s3.6-8,8-8h40c13.3,0,24-10.7,24-24v-8h184v40c0,4.4-3.6,8-8,8h-96c-4.4,0-8-3.6-8-8v-16c0-4.4-3.6-8-8-8
			s-8,3.6-8,8v16c0,13.3,10.7,24,24,24h96c13.3,0,24-10.7,24-24v-80C464,227.6,460.4,224,456,224z M176,160c0-4.4,3.6-8,8-8h8v16h-8
			C179.6,168,176,164.4,176,160z M190.1,256l9.6-16c0.1,0,0.2,0,0.2,0s0.2,0,0.2,0l9.6,16H190.1z"/>
		<path class="st0" d="M224,160c0,4.4,3.6,8,8,8h11c37.5-0.1,74,11.7,104.4,33.5c3.6,2.6,8.6,1.7,11.2-1.9c2.6-3.6,1.7-8.6-1.9-11.2
			c-33.1-23.8-72.9-36.6-113.7-36.5h-11C227.6,152,224,155.6,224,160z"/>
		<path class="st0" d="M130.3,229.7c3.1,3.1,8.2,3.1,11.3,0l24-24c3.1-3.2,3-8.2-0.2-11.3c-3.1-3-8-3-11.1,0l-24,24
			C127.2,221.5,127.2,226.5,130.3,229.7z"/>
		<path class="st0" d="M138.3,170.3l-8,8c-3.2,3.1-3.3,8.1-0.2,11.3c3.1,3.2,8.1,3.3,11.3,0.2c0.1-0.1,0.1-0.1,0.2-0.2l8-8
			c3.1-3.2,3-8.2-0.2-11.3C146.4,167.3,141.4,167.3,138.3,170.3z"/>
		<path class="st0" d="M384,200c-13.3,0-24,10.7-24,24s10.7,24,24,24s24-10.7,24-24S397.3,200,384,200z M384,232c-4.4,0-8-3.6-8-8
			s3.6-8,8-8s8,3.6,8,8S388.4,232,384,232z"/>
		<path class="st0" d="M360,48c-4.4,0-8,3.6-8,8v56c0,4.4,3.6,8,8,8h64c4.4,0,8-3.6,8-8s-3.6-8-8-8h-46.3
			c10.6-15.1,27.9-24.1,46.3-24c4.4,0,8-3.6,8-8s-3.6-8-8-8c-21.7,0-42.3,9.7-56,26.5V56C368,51.6,364.4,48,360,48z"/>
		<path class="st0" d="M82.3,101.7c3.1,3.1,8.2,3.1,11.3,0L104,91.3l10.3,10.3c3.2,3.1,8.2,3,11.3-0.2c3-3.1,3-8,0-11.1L115.3,80
			l10.3-10.3c3.2-3.1,3.3-8.1,0.2-11.3c-3.1-3.2-8.1-3.3-11.3-0.2c-0.1,0.1-0.1,0.1-0.2,0.2L104,68.7L93.7,58.3
			c-3.1-3.2-8.1-3.3-11.3-0.2s-3.3,8.1-0.2,11.3c0.1,0.1,0.1,0.1,0.2,0.2L92.7,80L82.3,90.3C79.2,93.5,79.2,98.5,82.3,101.7z"/>
		<path class="st0" d="M191.2,102.4c3.5,2.7,8.5,1.9,11.2-1.6l24-32c2.7-3.5,1.9-8.5-1.6-11.2s-8.5-1.9-11.2,1.6l-5.6,7.5l-5.6-7.5
			c-2.7-3.5-7.7-4.3-11.2-1.6c-3.5,2.7-4.3,7.7-1.6,11.2L198,80l-8.4,11.2C186.9,94.7,187.7,99.7,191.2,102.4L191.2,102.4z"/>
		<path class="st0" d="M323.2,60.4c-1.4-2.7-4.2-4.4-7.2-4.4h-24c-4.4,0-8,3.6-8,8s3.6,8,8,8h8l-14.4,19.2
			c-2.7,3.5-1.9,8.5,1.6,11.2c1.4,1,3.1,1.6,4.8,1.6h24c4.4,0,8-3.6,8-8s-3.6-8-8-8h-8l14.4-19.2C324.2,66.4,324.5,63.1,323.2,60.4z
			"/>
		<path class="st0" d="M152,76h16c4.4,0,8-3.6,8-8s-3.6-8-8-8h-16c-4.4,0-8,3.6-8,8S147.6,76,152,76z"/>
		<path class="st0" d="M256,60c-4.4,0-8,3.6-8,8v4h-4c-4.4,0-8,3.6-8,8s3.6,8,8,8h4v4c0,4.4,3.6,8,8,8s8-3.6,8-8v-4h4
			c4.4,0,8-3.6,8-8s-3.6-8-8-8h-4v-4C264,63.6,260.4,60,256,60z"/>
		<path class="st0" d="M152,100h16c4.4,0,8-3.6,8-8s-3.6-8-8-8h-16c-4.4,0-8,3.6-8,8S147.6,100,152,100z"/>
		<path class="st0" d="M424,136h-32c-4.4,0-8,3.6-8,8s3.6,8,8,8h32c4.4,0,8-3.6,8-8S428.4,136,424,136z"/>
		<path class="st0" d="M424,184c4.4,0,8-3.6,8-8s-3.6-8-8-8h-16c-4.4,0-8,3.6-8,8s3.6,8,8,8H424z"/>
		<circle class="st0" cx="360" cy="296" r="8"/>
		<path class="st0" d="M424,304c4.4,0,8-3.6,8-8s-3.6-8-8-8h-32c-4.4,0-8,3.6-8,8s3.6,8,8,8H424z"/>
	</g>
</g>
</svg>
