<?xml version="1.0" encoding="utf-8"?>
<!-- Generator: Adobe Illustrator 25.0.0, SVG Export Plug-In . SVG Version: 6.00 Build 0)  -->
<svg version="1.1" id="Calque_1" xmlns="http://www.w3.org/2000/svg" xmlns:xlink="http://www.w3.org/1999/xlink" x="0px" y="0px"
	 viewBox="0 0 512 512" style="enable-background:new 0 0 512 512;" xml:space="preserve">
<style type="text/css">
	.st0{fill:#EDF4FC;}
	.st1{fill:#87D147;}
	.st2{fill:#FC657E;}
	.st3{fill:#FFFFFF;}
</style>
<g id="Layer_77">
	<g>
		<g>
			<g>
				<path class="st0" d="M190.6,74.2c0-2.8,2.2-5,5-5h109.6c2.8,0,5,2.2,5,5c0,2.8-2.2,5-5,5H195.6
					C192.8,79.2,190.6,76.9,190.6,74.2z"/>
				<path class="st0" d="M384.2,96.2c0,2.8-2.2,5-5,5H195.6c-2.8,0-5-2.2-5-5c0-2.8,2.2-5,5-5h183.6
					C381.9,91.2,384.2,93.4,384.2,96.2z"/>
				<path class="st0" d="M139.4,70.6c-1.9-2-5.1-2-7.1,0l-16.9,16.9l-8.4-8.4c-2-2-5.1-2-7.1,0c-2,2-2,5.1,0,7.1l11.9,11.9
					c1,1,2.3,1.5,3.5,1.5c1.3,0,2.6-0.5,3.5-1.5l20.5-20.5C141.4,75.8,141.4,72.6,139.4,70.6z M139.4,70.6c-1.9-2-5.1-2-7.1,0
					l-16.9,16.9l-8.4-8.4c-2-2-5.1-2-7.1,0c-2,2-2,5.1,0,7.1l11.9,11.9c1,1,2.3,1.5,3.5,1.5c1.3,0,2.6-0.5,3.5-1.5l20.5-20.5
					C141.4,75.8,141.4,72.6,139.4,70.6z M139.4,70.6c-1.9-2-5.1-2-7.1,0l-16.9,16.9l-8.4-8.4c-2-2-5.1-2-7.1,0c-2,2-2,5.1,0,7.1
					l11.9,11.9c1,1,2.3,1.5,3.5,1.5c1.3,0,2.6-0.5,3.5-1.5l20.5-20.5C141.4,75.8,141.4,72.6,139.4,70.6z M139.4,70.6
					c-1.9-2-5.1-2-7.1,0l-16.9,16.9l-8.4-8.4c-2-2-5.1-2-7.1,0c-2,2-2,5.1,0,7.1l11.9,11.9c1,1,2.3,1.5,3.5,1.5
					c1.3,0,2.6-0.5,3.5-1.5l20.5-20.5C141.4,75.8,141.4,72.6,139.4,70.6z M139.4,70.6c-1.9-2-5.1-2-7.1,0l-16.9,16.9l-8.4-8.4
					c-2-2-5.1-2-7.1,0c-2,2-2,5.1,0,7.1l11.9,11.9c1,1,2.3,1.5,3.5,1.5c1.3,0,2.6-0.5,3.5-1.5l20.5-20.5
					C141.4,75.8,141.4,72.6,139.4,70.6z M139.4,70.6c-1.9-2-5.1-2-7.1,0l-16.9,16.9l-8.4-8.4c-2-2-5.1-2-7.1,0c-2,2-2,5.1,0,7.1
					l11.9,11.9c1,1,2.3,1.5,3.5,1.5c1.3,0,2.6-0.5,3.5-1.5l20.5-20.5C141.4,75.8,141.4,72.6,139.4,70.6z M415.9,46.8H96.1
					c-8.8,0-16,7.2-16,16v42.5c0,8.8,7.2,16,16,16h319.9c8.8,0,16-7.2,16-16V62.8C431.9,54,424.8,46.8,415.9,46.8z M85.1,105.4V62.8
					c0-6.1,4.9-11,11-11h58.3v64.5H96.1C90,116.4,85.1,111.5,85.1,105.4z M426.9,105.4c0,6.1-4.9,11-11,11H164.4V51.8h251.5
					c6.1,0,11,4.9,11,11V105.4z M132.3,70.6l-16.9,16.9l-8.4-8.4c-2-2-5.1-2-7.1,0c-2,2-2,5.1,0,7.1l11.9,11.9c1,1,2.3,1.5,3.5,1.5
					c1.3,0,2.6-0.5,3.5-1.5l20.5-20.5c2-2,2-5.1,0-7.1C137.5,68.7,134.3,68.7,132.3,70.6z M139.4,70.6c-1.9-2-5.1-2-7.1,0
					l-16.9,16.9l-8.4-8.4c-2-2-5.1-2-7.1,0c-2,2-2,5.1,0,7.1l11.9,11.9c1,1,2.3,1.5,3.5,1.5c1.3,0,2.6-0.5,3.5-1.5l20.5-20.5
					C141.4,75.8,141.4,72.6,139.4,70.6z M139.4,70.6c-1.9-2-5.1-2-7.1,0l-16.9,16.9l-8.4-8.4c-2-2-5.1-2-7.1,0c-2,2-2,5.1,0,7.1
					l11.9,11.9c1,1,2.3,1.5,3.5,1.5c1.3,0,2.6-0.5,3.5-1.5l20.5-20.5C141.4,75.8,141.4,72.6,139.4,70.6z M139.4,70.6
					c-1.9-2-5.1-2-7.1,0l-16.9,16.9l-8.4-8.4c-2-2-5.1-2-7.1,0c-2,2-2,5.1,0,7.1l11.9,11.9c1,1,2.3,1.5,3.5,1.5
					c1.3,0,2.6-0.5,3.5-1.5l20.5-20.5C141.4,75.8,141.4,72.6,139.4,70.6z M139.4,70.6c-1.9-2-5.1-2-7.1,0l-16.9,16.9l-8.4-8.4
					c-2-2-5.1-2-7.1,0c-2,2-2,5.1,0,7.1l11.9,11.9c1,1,2.3,1.5,3.5,1.5c1.3,0,2.6-0.5,3.5-1.5l20.5-20.5
					C141.4,75.8,141.4,72.6,139.4,70.6z M139.4,70.6c-1.9-2-5.1-2-7.1,0l-16.9,16.9l-8.4-8.4c-2-2-5.1-2-7.1,0c-2,2-2,5.1,0,7.1
					l11.9,11.9c1,1,2.3,1.5,3.5,1.5c1.3,0,2.6-0.5,3.5-1.5l20.5-20.5C141.4,75.8,141.4,72.6,139.4,70.6z M139.4,70.6
					c-1.9-2-5.1-2-7.1,0l-16.9,16.9l-8.4-8.4c-2-2-5.1-2-7.1,0c-2,2-2,5.1,0,7.1l11.9,11.9c1,1,2.3,1.5,3.5,1.5
					c1.3,0,2.6-0.5,3.5-1.5l20.5-20.5C141.4,75.8,141.4,72.6,139.4,70.6z"/>
			</g>
		</g>
		<g>
			<g>
				<path class="st1" d="M99.9,86.2c-2-2-2-5.1,0-7.1c2-2,5.1-2,7.1,0l8.4,8.4l16.9-16.9c1.9-2,5.1-2,7.1,0c2,2,2,5.1,0,7.1
					l-20.5,20.5c-1,1-2.2,1.5-3.5,1.5c-1.3,0-2.6-0.5-3.5-1.5L99.9,86.2z"/>
				<path class="st1" d="M96.1,46.8c-8.8,0-16,7.2-16,16v42.5c0,8.8,7.2,16,16,16h63.3V46.8H96.1z M154.4,116.4H96.1
					c-6.1,0-11-4.9-11-11V62.8c0-6.1,4.9-11,11-11h58.3V116.4z"/>
			</g>
		</g>
		<g>
			<g>
				<path class="st0" d="M139.4,180.8c2,2,2,5.1,0,7.1l-20.5,20.5c-1,1-2.3,1.5-3.5,1.5c-1.3,0-2.6-0.5-3.5-1.5l-11.9-11.9
					c-2-2-2-5.1,0-7.1c2-2,5.1-2,7.1,0l8.4,8.4l16.9-16.9C134.3,178.9,137.5,178.9,139.4,180.8z"/>
				<path class="st0" d="M305.2,179.3H195.6c-2.8,0-5,2.2-5,5c0,2.8,2.2,5,5,5h109.6c2.8,0,5-2.2,5-5
					C310.2,181.6,307.9,179.3,305.2,179.3z M379.2,201.3H195.6c-2.8,0-5,2.2-5,5c0,2.8,2.2,5,5,5h183.6c2.8,0,5-2.2,5-5
					C384.2,203.6,381.9,201.3,379.2,201.3z M379.2,201.3H195.6c-2.8,0-5,2.2-5,5c0,2.8,2.2,5,5,5h183.6c2.8,0,5-2.2,5-5
					C384.2,203.6,381.9,201.3,379.2,201.3z M305.2,179.3H195.6c-2.8,0-5,2.2-5,5c0,2.8,2.2,5,5,5h109.6c2.8,0,5-2.2,5-5
					C310.2,181.6,307.9,179.3,305.2,179.3z M305.2,179.3H195.6c-2.8,0-5,2.2-5,5c0,2.8,2.2,5,5,5h109.6c2.8,0,5-2.2,5-5
					C310.2,181.6,307.9,179.3,305.2,179.3z M379.2,201.3H195.6c-2.8,0-5,2.2-5,5c0,2.8,2.2,5,5,5h183.6c2.8,0,5-2.2,5-5
					C384.2,203.6,381.9,201.3,379.2,201.3z M379.2,201.3H195.6c-2.8,0-5,2.2-5,5c0,2.8,2.2,5,5,5h183.6c2.8,0,5-2.2,5-5
					C384.2,203.6,381.9,201.3,379.2,201.3z M195.6,189.3h109.6c2.8,0,5-2.2,5-5c0-2.8-2.2-5-5-5H195.6c-2.8,0-5,2.2-5,5
					C190.6,187.1,192.8,189.3,195.6,189.3z M415.9,157H96.1c-8.8,0-16,7.2-16,16v42.5c0,8.8,7.2,16,16,16h319.9c8.8,0,16-7.2,16-16
					V173C431.9,164.2,424.8,157,415.9,157z M85.1,215.6V173c0-6.1,4.9-11,11-11h58.3v64.5H96.1C90,226.6,85.1,221.6,85.1,215.6z
					 M426.9,215.6c0,6.1-4.9,11-11,11H164.4V162h251.5c6.1,0,11,4.9,11,11V215.6z M379.2,201.3H195.6c-2.8,0-5,2.2-5,5
					c0,2.8,2.2,5,5,5h183.6c2.8,0,5-2.2,5-5C384.2,203.6,381.9,201.3,379.2,201.3z M195.6,189.3h109.6c2.8,0,5-2.2,5-5
					c0-2.8-2.2-5-5-5H195.6c-2.8,0-5,2.2-5,5C190.6,187.1,192.8,189.3,195.6,189.3z M305.2,179.3H195.6c-2.8,0-5,2.2-5,5
					c0,2.8,2.2,5,5,5h109.6c2.8,0,5-2.2,5-5C310.2,181.6,307.9,179.3,305.2,179.3z M379.2,201.3H195.6c-2.8,0-5,2.2-5,5
					c0,2.8,2.2,5,5,5h183.6c2.8,0,5-2.2,5-5C384.2,203.6,381.9,201.3,379.2,201.3z M379.2,201.3H195.6c-2.8,0-5,2.2-5,5
					c0,2.8,2.2,5,5,5h183.6c2.8,0,5-2.2,5-5C384.2,203.6,381.9,201.3,379.2,201.3z M305.2,179.3H195.6c-2.8,0-5,2.2-5,5
					c0,2.8,2.2,5,5,5h109.6c2.8,0,5-2.2,5-5C310.2,181.6,307.9,179.3,305.2,179.3z M305.2,179.3H195.6c-2.8,0-5,2.2-5,5
					c0,2.8,2.2,5,5,5h109.6c2.8,0,5-2.2,5-5C310.2,181.6,307.9,179.3,305.2,179.3z M379.2,201.3H195.6c-2.8,0-5,2.2-5,5
					c0,2.8,2.2,5,5,5h183.6c2.8,0,5-2.2,5-5C384.2,203.6,381.9,201.3,379.2,201.3z M379.2,201.3H195.6c-2.8,0-5,2.2-5,5
					c0,2.8,2.2,5,5,5h183.6c2.8,0,5-2.2,5-5C384.2,203.6,381.9,201.3,379.2,201.3z M305.2,179.3H195.6c-2.8,0-5,2.2-5,5
					c0,2.8,2.2,5,5,5h109.6c2.8,0,5-2.2,5-5C310.2,181.6,307.9,179.3,305.2,179.3z"/>
			</g>
		</g>
		<g>
			<g>
				<path class="st0" d="M139.4,291c2,1.9,2,5.1,0,7.1l-20.5,20.5c-1,1-2.3,1.5-3.5,1.5c-1.3,0-2.6-0.5-3.5-1.5l-11.9-12
					c-2-2-2-5.1,0-7.1c2-2,5.1-2,7.1,0l8.4,8.4l16.9-16.9C134.3,289.1,137.5,289.1,139.4,291z"/>
				<path class="st0" d="M305.2,289.5H195.6c-2.8,0-5,2.2-5,5c0,2.8,2.2,5,5,5h109.6c2.8,0,5-2.2,5-5
					C310.2,291.8,307.9,289.5,305.2,289.5z M379.2,311.5H195.6c-2.8,0-5,2.2-5,5c0,2.8,2.2,5,5,5h183.6c2.8,0,5-2.2,5-5
					C384.2,313.8,381.9,311.5,379.2,311.5z M379.2,311.5H195.6c-2.8,0-5,2.2-5,5c0,2.8,2.2,5,5,5h183.6c2.8,0,5-2.2,5-5
					C384.2,313.8,381.9,311.5,379.2,311.5z M195.6,299.5h109.6c2.8,0,5-2.2,5-5c0-2.8-2.2-5-5-5H195.6c-2.8,0-5,2.2-5,5
					C190.6,297.3,192.8,299.5,195.6,299.5z M415.9,267.2H96.1c-8.8,0-16,7.2-16,16v42.5c0,8.8,7.2,16,16,16h319.9
					c8.8,0,16-7.2,16-16v-42.5C431.9,274.4,424.8,267.2,415.9,267.2z M85.1,325.8v-42.5c0-6.1,4.9-11,11-11h58.3v64.5H96.1
					C90,336.8,85.1,331.8,85.1,325.8z M426.9,325.8c0,6.1-4.9,11-11,11H164.4v-64.5h251.5c6.1,0,11,4.9,11,11V325.8z M379.2,311.5
					H195.6c-2.8,0-5,2.2-5,5c0,2.8,2.2,5,5,5h183.6c2.8,0,5-2.2,5-5C384.2,313.8,381.9,311.5,379.2,311.5z M195.6,299.5h109.6
					c2.8,0,5-2.2,5-5c0-2.8-2.2-5-5-5H195.6c-2.8,0-5,2.2-5,5C190.6,297.3,192.8,299.5,195.6,299.5z M305.2,289.5H195.6
					c-2.8,0-5,2.2-5,5c0,2.8,2.2,5,5,5h109.6c2.8,0,5-2.2,5-5C310.2,291.8,307.9,289.5,305.2,289.5z M379.2,311.5H195.6
					c-2.8,0-5,2.2-5,5c0,2.8,2.2,5,5,5h183.6c2.8,0,5-2.2,5-5C384.2,313.8,381.9,311.5,379.2,311.5z M379.2,311.5H195.6
					c-2.8,0-5,2.2-5,5c0,2.8,2.2,5,5,5h183.6c2.8,0,5-2.2,5-5C384.2,313.8,381.9,311.5,379.2,311.5z M305.2,289.5H195.6
					c-2.8,0-5,2.2-5,5c0,2.8,2.2,5,5,5h109.6c2.8,0,5-2.2,5-5C310.2,291.8,307.9,289.5,305.2,289.5z"/>
			</g>
		</g>
		<g>
			<g>
				<path class="st1" d="M99.9,196.4c-2-2-2-5.1,0-7.1c2-2,5.1-2,7.1,0l8.4,8.4l16.9-16.9c1.9-2,5.1-2,7.1,0c2,2,2,5.1,0,7.1
					l-20.5,20.5c-1,1-2.3,1.5-3.5,1.5c-1.3,0-2.6-0.5-3.5-1.5L99.9,196.4z"/>
				<path class="st1" d="M96.1,157c-8.8,0-16,7.2-16,16v42.5c0,8.8,7.2,16,16,16h63.3V157H96.1z M154.4,226.6H96.1
					c-6.1,0-11-4.9-11-11V173c0-6.1,4.9-11,11-11h58.3V226.6z"/>
			</g>
		</g>
		<g>
			<g>
				<path class="st1" d="M99.9,306.6c-2-2-2-5.1,0-7.1c2-2,5.1-2,7.1,0l8.4,8.4l16.9-16.9c1.9-2,5.1-2,7.1,0c2,1.9,2,5.1,0,7.1
					l-20.5,20.5c-1,1-2.3,1.5-3.5,1.5c-1.3,0-2.6-0.5-3.5-1.5L99.9,306.6z"/>
				<path class="st1" d="M96.1,267.2c-8.8,0-16,7.2-16,16v42.5c0,8.8,7.2,16,16,16h63.3v-74.5H96.1z M154.4,336.8H96.1
					c-6.1,0-11-4.9-11-11v-42.5c0-6.1,4.9-11,11-11h58.3V336.8z"/>
			</g>
		</g>
		<g>
			<g>
				<path class="st0" d="M135,406.8l-8,8l8,8c2,2,2,5.1,0,7.1c-1,1-2.2,1.5-3.5,1.5c-1.3,0-2.6-0.5-3.5-1.5l-8-8l-8,8
					c-1,1-2.2,1.5-3.5,1.5c-1.3,0-2.6-0.5-3.5-1.5c-2-2-2-5.1,0-7.1l8-8l-8-8c-2-2-2-5.1,0-7.1c1.9-2,5.1-2,7.1,0l8,8l8-8
					c2-2,5.1-2,7.1,0C136.9,401.6,136.9,404.8,135,406.8z"/>
				<path class="st0" d="M415.9,377.4H96.1c-8.8,0-16,7.2-16,16V436c0,8.8,7.2,16,16,16h319.9c8.8,0,16-7.2,16-16v-42.5
					C431.9,384.6,424.8,377.4,415.9,377.4z M85.1,436v-42.5c0-6.1,4.9-11,11-11h58.3V447H96.1C90,447,85.1,442,85.1,436z M426.9,436
					c0,6.1-4.9,11-11,11H164.4v-64.5h251.5c6.1,0,11,4.9,11,11V436z M379.2,421.7H195.6c-2.8,0-5,2.2-5,5c0,2.8,2.2,5,5,5h183.6
					c2.8,0,5-2.2,5-5C384.2,424,381.9,421.7,379.2,421.7z M195.6,409.7h109.6c2.8,0,5-2.2,5-5c0-2.8-2.2-5-5-5H195.6
					c-2.8,0-5,2.2-5,5C190.6,407.5,192.8,409.7,195.6,409.7z"/>
			</g>
		</g>
		<g>
			<g>
				<path class="st2" d="M104.8,422.8l8-8l-8-8c-2-2-2-5.1,0-7.1c1.9-2,5.1-2,7.1,0l8,8l8-8c2-2,5.1-2,7.1,0c2,2,2,5.1,0,7.1l-8,8
					l8,8c2,2,2,5.1,0,7.1c-1,1-2.2,1.5-3.5,1.5c-1.3,0-2.6-0.5-3.5-1.5l-8-8l-8,8c-1,1-2.2,1.5-3.5,1.5c-1.3,0-2.6-0.5-3.5-1.5
					C102.8,427.9,102.8,424.7,104.8,422.8z"/>
				<path class="st2" d="M96.1,377.4c-8.8,0-16,7.2-16,16V436c0,8.8,7.2,16,16,16h63.3v-74.5H96.1z M154.4,447H96.1
					c-6.1,0-11-4.9-11-11v-42.5c0-6.1,4.9-11,11-11h58.3V447z"/>
			</g>
		</g>
		<g>
			<g>
				<path class="st3" d="M415.9,41.8H96.1c-11.6,0-21,9.4-21,21v42.5c0,11.6,9.4,21,21,21h319.9c11.6,0,21-9.4,21-21V62.8
					C436.9,51.3,427.5,41.8,415.9,41.8z M426.9,105.4c0,6.1-4.9,11-11,11H96.1c-6.1,0-11-4.9-11-11V62.8c0-6.1,4.9-11,11-11h319.9
					c6.1,0,11,4.9,11,11V105.4z"/>
			</g>
		</g>
		<g>
			<g>
				<path class="st3" d="M310.2,74.2c0,2.8-2.2,5-5,5H195.6c-2.8,0-5-2.2-5-5c0-2.8,2.2-5,5-5h109.6
					C307.9,69.2,310.2,71.4,310.2,74.2z"/>
			</g>
		</g>
		<g>
			<g>
				<path class="st3" d="M415.9,152H96.1c-11.6,0-21,9.4-21,21v42.5c0,11.6,9.4,21,21,21h319.9c11.6,0,21-9.4,21-21V173
					C436.9,161.5,427.5,152,415.9,152z M426.9,215.6c0,6.1-4.9,11-11,11H96.1c-6.1,0-11-4.9-11-11V173c0-6.1,4.9-11,11-11h319.9
					c6.1,0,11,4.9,11,11V215.6z"/>
			</g>
		</g>
		<g>
			<g>
				<path class="st3" d="M310.2,184.3c0,2.8-2.2,5-5,5H195.6c-2.8,0-5-2.2-5-5c0-2.8,2.2-5,5-5h109.6
					C307.9,179.3,310.2,181.6,310.2,184.3z"/>
			</g>
		</g>
		<g>
			<g>
				<path class="st3" d="M415.9,262.2H96.1c-11.6,0-21,9.4-21,21v42.5c0,11.6,9.4,21,21,21h319.9c11.6,0,21-9.4,21-21v-42.5
					C436.9,271.7,427.5,262.2,415.9,262.2z M426.9,325.8c0,6.1-4.9,11-11,11H96.1c-6.1,0-11-4.9-11-11v-42.5c0-6.1,4.9-11,11-11
					h319.9c6.1,0,11,4.9,11,11V325.8z"/>
			</g>
		</g>
		<g>
			<g>
				<path class="st3" d="M310.2,294.5c0,2.8-2.2,5-5,5H195.6c-2.8,0-5-2.2-5-5c0-2.8,2.2-5,5-5h109.6
					C307.9,289.5,310.2,291.8,310.2,294.5z"/>
			</g>
		</g>
		<g>
			<g>
				<path class="st3" d="M415.9,372.4H96.1c-11.6,0-21,9.4-21,21V436c0,11.6,9.4,21,21,21h319.9c11.6,0,21-9.4,21-21v-42.5
					C436.9,381.8,427.5,372.4,415.9,372.4z M426.9,436c0,6.1-4.9,11-11,11H96.1c-6.1,0-11-4.9-11-11v-42.5c0-6.1,4.9-11,11-11h319.9
					c6.1,0,11,4.9,11,11V436z"/>
			</g>
		</g>
		<g>
			<g>
				<path class="st3" d="M310.2,404.7c0,2.8-2.2,5-5,5H195.6c-2.8,0-5-2.2-5-5c0-2.8,2.2-5,5-5h109.6
					C307.9,399.7,310.2,402,310.2,404.7z"/>
			</g>
		</g>
		<g>
			<g>
				<path class="st3" d="M384.2,96.2c0,2.8-2.2,5-5,5H195.6c-2.8,0-5-2.2-5-5c0-2.8,2.2-5,5-5h183.6
					C381.9,91.2,384.2,93.4,384.2,96.2z"/>
			</g>
		</g>
		<g>
			<g>
				<path class="st3" d="M384.2,206.3c0,2.8-2.2,5-5,5H195.6c-2.8,0-5-2.2-5-5c0-2.8,2.2-5,5-5h183.6
					C381.9,201.3,384.2,203.6,384.2,206.3z"/>
			</g>
		</g>
		<g>
			<g>
				<path class="st3" d="M384.2,316.5c0,2.8-2.2,5-5,5H195.6c-2.8,0-5-2.2-5-5c0-2.8,2.2-5,5-5h183.6
					C381.9,311.5,384.2,313.8,384.2,316.5z"/>
			</g>
		</g>
		<g>
			<g>
				<path class="st3" d="M384.2,426.7c0,2.8-2.2,5-5,5H195.6c-2.8,0-5-2.2-5-5c0-2.8,2.2-5,5-5h183.6
					C381.9,421.7,384.2,424,384.2,426.7z"/>
			</g>
		</g>
		<g>
			<g>
				<path class="st3" d="M164.4,47.7v72.8c0,0.3,0,0.7-0.1,1c-0.5,2.3-2.5,4-4.9,4c-2.4,0-4.5-1.7-4.9-4c-0.1-0.3-0.1-0.6-0.1-1
					V47.7c0-0.3,0-0.5,0.1-0.8c0.4-2.4,2.4-4.2,4.9-4.2c2.5,0,4.5,1.8,4.9,4.2C164.4,47.1,164.4,47.4,164.4,47.7z"/>
			</g>
		</g>
		<g>
			<g>
				<path class="st3" d="M139.4,77.7l-20.5,20.5c-1,1-2.2,1.5-3.5,1.5c-1.3,0-2.6-0.5-3.5-1.5L99.9,86.2c-2-2-2-5.1,0-7.1
					c2-2,5.1-2,7.1,0l8.4,8.4l16.9-16.9c1.9-2,5.1-2,7.1,0C141.4,72.6,141.4,75.8,139.4,77.7z"/>
			</g>
		</g>
		<g>
			<g>
				<path class="st3" d="M164.4,158.4v71.9c0,0.5-0.1,0.9-0.2,1.3c-0.6,2.1-2.5,3.7-4.8,3.7c-2.3,0-4.2-1.6-4.8-3.7
					c-0.1-0.4-0.2-0.9-0.2-1.3v-71.9c0-0.5,0.1-0.9,0.2-1.3c0.6-2.1,2.5-3.7,4.8-3.7c2.3,0,4.2,1.5,4.8,3.7
					C164.4,157.5,164.4,157.9,164.4,158.4z"/>
			</g>
		</g>
		<g>
			<g>
				<path class="st3" d="M139.4,187.9l-20.5,20.5c-1,1-2.3,1.5-3.5,1.5c-1.3,0-2.6-0.5-3.5-1.5l-11.9-11.9c-2-2-2-5.1,0-7.1
					c2-2,5.1-2,7.1,0l8.4,8.4l16.9-16.9c1.9-2,5.1-2,7.1,0C141.4,182.8,141.4,186,139.4,187.9z"/>
			</g>
		</g>
		<g>
			<g>
				<path class="st3" d="M164.4,268.5v72.4c0,0.3,0,0.6-0.1,0.9c-0.4,2.3-2.5,4.1-4.9,4.1c-2.5,0-4.5-1.8-4.9-4.1
					c0-0.3-0.1-0.6-0.1-0.9v-72.4c0-0.4,0.1-0.9,0.2-1.3c0.6-2.1,2.5-3.7,4.8-3.7c2.3,0,4.3,1.6,4.8,3.7
					C164.4,267.6,164.4,268.1,164.4,268.5z"/>
			</g>
		</g>
		<g>
			<g>
				<path class="st3" d="M139.4,298.1l-20.5,20.5c-1,1-2.3,1.5-3.5,1.5c-1.3,0-2.6-0.5-3.5-1.5l-11.9-12c-2-2-2-5.1,0-7.1
					c2-2,5.1-2,7.1,0l8.4,8.4l16.9-16.9c1.9-2,5.1-2,7.1,0C141.4,293,141.4,296.2,139.4,298.1z"/>
			</g>
		</g>
		<g>
			<g>
				<path class="st3" d="M164.4,378.8v72.7c0,0.2,0,0.3,0,0.5c-0.2,2.5-2.4,4.5-5,4.5c-2.6,0-4.7-2-5-4.5c0-0.2,0-0.3,0-0.5v-72.7
					c0-0.5,0.1-0.9,0.2-1.3c0.6-2.1,2.5-3.7,4.8-3.7c2.3,0,4.2,1.6,4.8,3.7C164.4,377.9,164.4,378.3,164.4,378.8z"/>
			</g>
		</g>
		<g>
			<g>
				<path class="st3" d="M135,406.8l-23.1,23.1c-1,1-2.2,1.5-3.5,1.5c-1.3,0-2.6-0.5-3.5-1.5c-2-2-2-5.1,0-7.1l23.1-23.1
					c2-2,5.1-2,7.1,0C136.9,401.6,136.9,404.8,135,406.8z"/>
			</g>
		</g>
		<g>
			<g>
				<path class="st3" d="M135,429.9c-1,1-2.2,1.5-3.5,1.5c-1.3,0-2.6-0.5-3.5-1.5l-8-8l-7.1-7.1l-8-8c-2-2-2-5.1,0-7.1
					c1.9-2,5.1-2,7.1,0l8,8l7.1,7.1l8,8C136.9,424.8,136.9,427.9,135,429.9z"/>
			</g>
		</g>
	</g>
</g>
</svg>
